<mxfile host="app.diagrams.net" modified="2022-02-13T12:46:00.228Z" agent="5.0 (X11; Linux x86_64) AppleWebKit/537.36 (KHTML, like Gecko) Chrome/98.0.4758.80 Safari/537.36" etag="xv2viiFxlVy0UXmt-b5z" version="16.5.6" type="github">
  <diagram id="Q8Wl0XVVpy8XWB574j5Y" name="Page-1">
    <mxGraphModel dx="3138" dy="2029" grid="1" gridSize="10" guides="1" tooltips="1" connect="1" arrows="1" fold="1" page="1" pageScale="1" pageWidth="827" pageHeight="1169" math="0" shadow="0">
      <root>
        <mxCell id="0" />
        <mxCell id="1" parent="0" />
        <mxCell id="U0201S7UnaK-OC-1dien-10" value="User" style="swimlane;childLayout=stackLayout;horizontal=1;startSize=30;horizontalStack=0;rounded=1;fontSize=14;fontStyle=0;strokeWidth=2;resizeParent=0;resizeLast=1;shadow=0;dashed=0;align=center;" vertex="1" parent="1">
          <mxGeometry x="-310" width="160" height="120" as="geometry">
            <mxRectangle x="-540" y="105" width="60" height="30" as="alternateBounds" />
          </mxGeometry>
        </mxCell>
        <mxCell id="U0201S7UnaK-OC-1dien-11" value="+ id (ObjectId)&#xa;+ name (string)&#xa;+ login (string)&#xa;+ password (string)Â " style="align=left;strokeColor=none;fillColor=none;spacingLeft=4;fontSize=12;verticalAlign=top;resizable=0;rotatable=0;part=1;" vertex="1" parent="U0201S7UnaK-OC-1dien-10">
          <mxGeometry y="30" width="160" height="90" as="geometry" />
        </mxCell>
        <mxCell id="U0201S7UnaK-OC-1dien-12" value="Comment" style="swimlane;childLayout=stackLayout;horizontal=1;startSize=30;horizontalStack=0;rounded=1;fontSize=14;fontStyle=0;strokeWidth=2;resizeParent=0;resizeLast=1;shadow=0;dashed=0;align=center;" vertex="1" parent="1">
          <mxGeometry x="-310" y="160" width="160" height="120" as="geometry">
            <mxRectangle x="-540" y="105" width="60" height="30" as="alternateBounds" />
          </mxGeometry>
        </mxCell>
        <mxCell id="U0201S7UnaK-OC-1dien-13" value="+ id (ObjectId)&#xa;+ authorId (ref)&#xa;+ text (string)" style="align=left;strokeColor=none;fillColor=none;spacingLeft=4;fontSize=12;verticalAlign=top;resizable=0;rotatable=0;part=1;" vertex="1" parent="U0201S7UnaK-OC-1dien-12">
          <mxGeometry y="30" width="160" height="90" as="geometry" />
        </mxCell>
        <mxCell id="U0201S7UnaK-OC-1dien-14" value="Lesson" style="swimlane;childLayout=stackLayout;horizontal=1;startSize=30;horizontalStack=0;rounded=1;fontSize=14;fontStyle=0;strokeWidth=2;resizeParent=0;resizeLast=1;shadow=0;dashed=0;align=center;" vertex="1" parent="1">
          <mxGeometry x="-330" y="310" width="200" height="180" as="geometry">
            <mxRectangle x="-540" y="105" width="60" height="30" as="alternateBounds" />
          </mxGeometry>
        </mxCell>
        <mxCell id="U0201S7UnaK-OC-1dien-15" value="+ id (ObjectId)&#xa;+ video link&#xa;+ comments&#xa;+description&#xa;+ materials&#xa;" style="align=left;strokeColor=none;fillColor=none;spacingLeft=4;fontSize=12;verticalAlign=top;resizable=0;rotatable=0;part=1;" vertex="1" parent="U0201S7UnaK-OC-1dien-14">
          <mxGeometry y="30" width="200" height="150" as="geometry" />
        </mxCell>
        <mxCell id="U0201S7UnaK-OC-1dien-16" value="Course" style="swimlane;childLayout=stackLayout;horizontal=1;startSize=30;horizontalStack=0;rounded=1;fontSize=14;fontStyle=0;strokeWidth=2;resizeParent=0;resizeLast=1;shadow=0;dashed=0;align=center;" vertex="1" parent="1">
          <mxGeometry x="150" width="200" height="180" as="geometry">
            <mxRectangle x="-540" y="105" width="60" height="30" as="alternateBounds" />
          </mxGeometry>
        </mxCell>
        <mxCell id="U0201S7UnaK-OC-1dien-17" value="+ id&#xa;+ image&#xa;+ creator (ref to user)&#xa;+ comments (ref to comment)&#xa;+ lessons (ref to lesson)&#xa;+ description&#xa;+ availableUsers (ref to users)&#xa;" style="align=left;strokeColor=none;fillColor=none;spacingLeft=4;fontSize=12;verticalAlign=top;resizable=0;rotatable=0;part=1;" vertex="1" parent="U0201S7UnaK-OC-1dien-16">
          <mxGeometry y="30" width="200" height="150" as="geometry" />
        </mxCell>
        <mxCell id="U0201S7UnaK-OC-1dien-20" value="" style="endArrow=open;endFill=1;endSize=12;html=1;rounded=0;entryX=1.003;entryY=0.445;entryDx=0;entryDy=0;entryPerimeter=0;" edge="1" parent="1" target="U0201S7UnaK-OC-1dien-11">
          <mxGeometry width="160" relative="1" as="geometry">
            <mxPoint x="157" y="72" as="sourcePoint" />
            <mxPoint x="-140.92000000000007" y="71.68000000000006" as="targetPoint" />
          </mxGeometry>
        </mxCell>
        <mxCell id="U0201S7UnaK-OC-1dien-21" value="creator (ref)" style="text;html=1;align=center;verticalAlign=middle;resizable=0;points=[];autosize=1;strokeColor=none;fillColor=none;" vertex="1" parent="1">
          <mxGeometry x="30" y="50" width="80" height="20" as="geometry" />
        </mxCell>
        <mxCell id="U0201S7UnaK-OC-1dien-22" value="" style="endArrow=open;endFill=1;endSize=12;html=1;rounded=0;entryX=1.008;entryY=0.177;entryDx=0;entryDy=0;entryPerimeter=0;" edge="1" parent="1">
          <mxGeometry width="160" relative="1" as="geometry">
            <mxPoint x="160" y="86" as="sourcePoint" />
            <mxPoint x="-148.72000000000003" y="201.93000000000006" as="targetPoint" />
          </mxGeometry>
        </mxCell>
        <mxCell id="U0201S7UnaK-OC-1dien-23" value="comment (ref)" style="text;html=1;align=center;verticalAlign=middle;resizable=0;points=[];autosize=1;strokeColor=none;fillColor=none;rotation=-21;" vertex="1" parent="1">
          <mxGeometry x="-55" y="130" width="90" height="20" as="geometry" />
        </mxCell>
        <mxCell id="U0201S7UnaK-OC-1dien-25" value="" style="endArrow=open;endFill=1;endSize=12;html=1;rounded=0;entryX=1;entryY=0;entryDx=0;entryDy=0;exitX=0.05;exitY=0.467;exitDx=0;exitDy=0;exitPerimeter=0;" edge="1" parent="1" source="U0201S7UnaK-OC-1dien-17" target="U0201S7UnaK-OC-1dien-14">
          <mxGeometry width="160" relative="1" as="geometry">
            <mxPoint x="130" y="110" as="sourcePoint" />
            <mxPoint x="-138.7199999999998" y="215.92999999999984" as="targetPoint" />
          </mxGeometry>
        </mxCell>
        <mxCell id="U0201S7UnaK-OC-1dien-26" value="lesson (ref)" style="text;html=1;align=center;verticalAlign=middle;resizable=0;points=[];autosize=1;strokeColor=none;fillColor=none;rotation=-35;" vertex="1" parent="1">
          <mxGeometry x="-40" y="180" width="80" height="20" as="geometry" />
        </mxCell>
        <mxCell id="U0201S7UnaK-OC-1dien-27" value="" style="endArrow=open;endFill=1;endSize=12;html=1;rounded=0;exitX=-0.017;exitY=0.386;exitDx=0;exitDy=0;exitPerimeter=0;entryX=-0.009;entryY=0.452;entryDx=0;entryDy=0;entryPerimeter=0;" edge="1" parent="1" target="U0201S7UnaK-OC-1dien-11">
          <mxGeometry width="160" relative="1" as="geometry">
            <mxPoint x="-303.4000000000001" y="219.99999999999986" as="sourcePoint" />
            <mxPoint x="-510" y="70" as="targetPoint" />
            <Array as="points">
              <mxPoint x="-510" y="220" />
              <mxPoint x="-510" y="71" />
            </Array>
          </mxGeometry>
        </mxCell>
        <mxCell id="U0201S7UnaK-OC-1dien-28" value="" style="endArrow=open;endFill=1;endSize=12;html=1;rounded=0;exitX=-0.017;exitY=0.386;exitDx=0;exitDy=0;exitPerimeter=0;entryX=-0.017;entryY=0.636;entryDx=0;entryDy=0;entryPerimeter=0;" edge="1" parent="1">
          <mxGeometry width="160" relative="1" as="geometry">
            <mxPoint x="-320.4000000000001" y="374.32" as="sourcePoint" />
            <mxPoint x="-309.72" y="242.24" as="targetPoint" />
            <Array as="points">
              <mxPoint x="-527" y="374.32" />
              <mxPoint x="-527" y="242" />
            </Array>
          </mxGeometry>
        </mxCell>
        <mxCell id="U0201S7UnaK-OC-1dien-29" value="comment (ref)" style="text;html=1;align=center;verticalAlign=middle;resizable=0;points=[];autosize=1;strokeColor=none;fillColor=none;" vertex="1" parent="1">
          <mxGeometry x="-505" y="350" width="90" height="20" as="geometry" />
        </mxCell>
        <mxCell id="U0201S7UnaK-OC-1dien-30" value="author (ref)" style="text;html=1;align=center;verticalAlign=middle;resizable=0;points=[];autosize=1;strokeColor=none;fillColor=none;" vertex="1" parent="1">
          <mxGeometry x="-470" y="200" width="70" height="20" as="geometry" />
        </mxCell>
      </root>
    </mxGraphModel>
  </diagram>
</mxfile>
